<svg width="83" height="83" viewBox="0 0 83 83" fill="none" xmlns="http://www.w3.org/2000/svg">
<path d="M74.1236 26.3267C74.5703 26.8166 74.628 27.5371 74.2821 28.1135C73.9651 28.6466 73.6913 29.1077 73.3743 29.54C70.0889 34.0935 68.2877 36.4711 65.0455 41.0534C64.2242 42.2062 62.2356 45.7366 61.4719 46.947C61.4575 46.9614 61.4575 46.9758 61.4431 46.9902C60.7514 48.0277 59.0511 47.9557 58.5035 46.8173C58.5035 46.8173 58.5035 46.8029 58.4891 46.8029C57.6822 45.0305 57.0337 43.2005 56.2844 41.3992C54.2238 36.4279 51.3563 32.1194 46.5867 29.2951C44.8575 28.272 44.8287 27.5227 46.1688 26.0385C46.6731 25.4909 47.1775 24.9289 47.725 24.439C53.0134 19.727 56.6591 13.9055 59.3825 7.42112C59.5554 7.01764 59.9013 6.70063 60.2759 6.38361C60.7658 5.98014 61.4719 6.03778 61.9042 6.49889C62.2644 6.87355 62.5959 7.27702 62.7976 7.72372C63.2443 8.76122 63.3596 9.92841 63.6334 11.038C65.1032 17.0756 68.3742 21.8885 73.3455 25.5918C73.6193 25.7935 73.8643 26.0529 74.1236 26.3267ZM60.8811 11.8593C59.1664 14.7124 57.7254 17.652 55.7657 20.2169C53.7627 22.8251 51.2554 25.0442 48.9643 27.4506C54.7858 30.9378 58.1577 36.4567 60.1894 43.2293C63.1723 37.0619 67.2934 32.1626 71.8181 27.5803C64.6709 22.1334 62.9705 19.6694 60.8811 11.8593Z" fill="#195A00"/>
<path d="M19.7846 76.0545C18.4733 72.3368 17.3349 68.547 15.8939 64.887C14.4818 61.3422 12.378 58.1864 9.35193 55.7512C8.24238 54.8578 8.2712 54.0509 9.17901 53.0422C14.2801 47.4944 18.1995 41.2118 21.0094 34.2231C21.312 33.4738 22.1189 32.2778 22.6809 32.2778C24.2084 31.9175 24.7559 34.9003 24.8136 35.1741C26.096 42.2061 30.4478 47.3215 35.3327 52.1055C36.9177 53.6618 37.0474 54.1373 35.4912 55.6359C29.6264 61.2557 25.7358 68.1724 22.3927 75.4493C21.3408 77.9854 19.9431 76.5012 19.7846 76.0545ZM11.1099 54.0364C14.2224 56.0106 16.283 58.6475 17.7816 61.6304C19.237 64.5555 20.3033 67.6536 21.5137 70.622C24.3092 64.3682 28.0846 58.5899 33.8196 54.1949C28.2719 49.8288 23.8913 44.843 22.5512 37.6958C20.1448 44.1225 16.3262 49.4686 11.1099 54.0364Z" fill="#195A00"/>
<path d="M59.1663 60.55C55.9818 64.8297 54.0365 69.7146 52.2496 74.6859C52.1344 75.0029 51.7597 76.8041 50.3908 76.7897C50.0017 76.7897 49.3533 76.1701 49.1083 75.6802C48.0276 73.4755 47.3503 71.0114 45.9814 69.0229C44.3675 66.6597 42.1484 64.7144 40.2752 62.5385C40.0014 62.2215 39.9005 61.501 40.0734 61.1119C40.4049 60.3915 40.9957 59.8151 41.4568 59.1522C43.8056 55.6939 46.1111 52.2067 48.5319 48.806C49.0363 48.1 50.0306 47.2498 50.6214 47.2498C52.0911 47.2354 52.3793 48.3882 52.6387 49.2095C53.8203 52.9849 55.8521 56.1406 58.8061 58.7488C59.858 59.7286 59.296 60.3771 59.1663 60.55ZM42.9842 61.5442C46.4137 63.9795 48.7481 67.4955 50.1602 71.4293C52.2497 67.5963 54.3823 63.6913 56.5726 59.6566C53.633 57.6248 51.5868 53.835 50.6502 51.0396C48.0852 54.5555 45.5491 58.0283 42.9842 61.5442Z" fill="#195A00"/>
</svg>
