<svg width="33" height="32" viewBox="0 0 33 32" fill="none" xmlns="http://www.w3.org/2000/svg">
<path d="M15.8605 16.144C15.7144 16.0015 15.59 15.8952 15.4815 15.7704C14.3823 14.5142 13.5952 13.0761 12.9283 11.5746C12.8507 11.3984 12.7946 11.2025 12.7894 11.0183C12.7864 10.9189 12.8799 10.7793 12.9756 10.7245C13.0482 10.684 13.2138 10.7218 13.2838 10.782C13.4189 10.8946 13.5411 11.0368 13.6331 11.189C14.2425 12.1917 14.8462 13.1958 15.4422 14.2046C15.6642 14.5825 15.8764 14.9686 16.0906 15.3513C16.1639 15.4784 16.2295 15.6102 16.286 15.7413C16.3525 15.8877 16.3481 16.0477 16.2013 16.1232C16.1042 16.1724 16.0171 16.2369 15.8605 16.144Z" fill="#333333"/>
<path d="M24.0744 14.4387C23.9471 14.5862 23.8105 14.7653 23.6567 14.9249C23.0475 15.5531 22.4383 16.1813 21.824 16.8018C21.6902 16.9361 21.53 17.0501 21.3673 17.1441C21.1509 17.2712 20.9659 17.2497 20.8242 17.1239C20.6826 16.998 20.657 16.8156 20.7831 16.5977C20.868 16.4483 20.9663 16.2929 21.0862 16.1735C21.8819 15.3958 22.6846 14.6223 23.4888 13.8543C23.5791 13.7684 23.6927 13.6918 23.8112 13.6553C24.105 13.5601 24.342 13.7844 24.2573 14.078C24.2225 14.1921 24.1439 14.2988 24.0744 14.4387Z" fill="#333333"/>
<path d="M8.74923 18.4013C8.59019 18.2883 8.44349 18.1548 8.30446 18.0166C8.18117 17.8923 8.13558 17.7352 8.21396 17.5726C8.28148 17.4361 8.50111 17.3759 8.69141 17.461C8.94634 17.5751 9.20277 17.6947 9.43506 17.8465C10.1355 18.3039 10.8312 18.7771 11.5214 19.2517C11.7495 19.4103 11.9695 19.5826 12.1853 19.7618C12.2589 19.824 12.3279 19.9021 12.3652 19.9847C12.4747 20.2122 12.3287 20.423 12.0815 20.3925C11.9424 20.375 11.7948 20.3153 11.6738 20.2435C11.2649 20.0241 9.3133 18.7964 8.74923 18.4013Z" fill="#333333"/>
</svg>
